<?xml version="1.0" encoding="UTF-8"?>
<!DOCTYPE svg PUBLIC "-//W3C//DTD SVG 1.1//EN" "http://www.w3.org/Graphics/SVG/1.1/DTD/svg11.dtd">
<!-- Creator: CorelDRAW -->
<svg xmlns="http://www.w3.org/2000/svg" xml:space="preserve" width="0.3in" height="0.3in" version="1.1" style="shape-rendering:geometricPrecision; text-rendering:geometricPrecision; image-rendering:optimizeQuality; fill-rule:evenodd; clip-rule:evenodd"
viewBox="0 0 300 300"
 xmlns:xlink="http://www.w3.org/1999/xlink"
 xmlns:xodm="http://www.corel.com/coreldraw/odm/2003">
 <defs>
  <style type="text/css">
   <![CDATA[
    .fil0 {fill:#005BE2;fill-rule:nonzero}
   ]]>
  </style>
 </defs>
 <g id="Layer_x0020_1">
  <metadata id="CorelCorpID_0Corel-Layer"/>
  <path class="fil0" d="M82.12 57.63l135.76 0c8.58,0 16.39,3.52 22.04,9.16 5.65,5.65 9.17,13.46 9.17,22.04l0 85.17c0,8.56 -3.51,16.36 -9.17,22.02 -5.68,5.67 -13.48,9.19 -22.04,9.19l-0.13 0 0 46.89 -49.9 -46.89 -85.73 0c-8.58,0 -16.39,-3.51 -22.04,-9.17 -5.65,-5.65 -9.16,-13.46 -9.16,-22.04l0 -85.17c0,-8.57 3.52,-16.37 9.16,-22.02 5.67,-5.67 13.47,-9.18 22.04,-9.18zm10.23 89.59l115.3 0 0 10.42 -115.3 0 0 -10.42zm0 -39.58l115.3 0 0 10.42 -115.3 0 0 -10.42zm125.53 -39.59l-135.76 0c-5.72,0 -10.93,2.34 -14.69,6.1 -3.76,3.76 -6.1,8.97 -6.1,14.69l0 85.17c0,5.71 2.34,10.91 6.11,14.68 3.77,3.77 8.97,6.11 14.68,6.11l87.77 0 3.56 1.43 33.88 31.84 0 -33.26 10.55 0c5.72,0 10.93,-2.33 14.68,-6.09 3.78,-3.77 6.11,-8.97 6.11,-14.7l0 -85.17c0,-5.71 -2.34,-10.91 -6.11,-14.68 -3.76,-3.76 -8.96,-6.11 -14.68,-6.11z"/>
 </g>
</svg>
